/* XPM */
static char *bitcoin32[] = {
/* columns rows colors chars-per-pixel */
"32 32 95 2 ",
"   c #0F83DA",
".  c #0F84DA",
"X  c #1083DA",
"o  c #1084DA",
"O  c #1185DA",
"+  c #1287DA",
"@  c #1287DB",
"#  c #1589DB",
"$  c #168BDA",
"%  c #178BDA",
"&  c #1489DC",
"*  c #148ADD",
"=  c #168CDE",
"-  c #168DDE",
";  c #178DDE",
":  c #188DDA",
">  c #198FDA",
",  c #188FDF",
"<  c #1B91DA",
"1  c #1E94DA",
"2  c #1E95DA",
"3  c #1890DF",
"4  c #2197DA",
"5  c #2297DB",
"6  c #2196DE",
"7  c #259ADC",
"8  c #2B9DDF",
"9  c #2DA0DE",
"0  c #2EA1DF",
"q  c #2FA2DF",
"w  c #30A2DF",
"e  c #1D96E2",
"r  c #2196E2",
"t  c #239BE4",
"y  c #219CE5",
"u  c #25A2E7",
"i  c #28A6E9",
"p  c #28A7E9",
"a  c #2AA8EA",
"s  c #2BABEB",
"d  c #2CABEB",
"f  c #2BACEB",
"g  c #2CACEB",
"h  c #2CACEC",
"j  c #2CADEC",
"k  c #2DADEC",
"l  c #2EADEC",
"z  c #2DAEEC",
"x  c #33A5E0",
"c  c #3CACE3",
"v  c #30AFED",
"b  c #34B2EE",
"n  c #39B4EF",
"m  c #3AB5EF",
"M  c #3CB6EE",
"N  c #47B5E6",
"B  c #4AB7E7",
"V  c #41B6EB",
"C  c #47BAEC",
"Z  c #4CB8E8",
"A  c #4DBDEC",
"S  c #51BDEA",
"D  c #53BEEA",
"F  c #40B9F0",
"G  c #43BBF1",
"H  c #48BEF2",
"J  c #49BEF2",
"K  c #4ABFF3",
"L  c #56C1EB",
"P  c #57C1EB",
"I  c #53C0EC",
"U  c #58C2EC",
"Y  c #59C3EC",
"T  c #5AC3EC",
"R  c #5AC4EC",
"E  c #4CC0F3",
"W  c #53C1F3",
"Q  c #53C5F5",
"!  c #5FCCF7",
"~  c #65D0F9",
"^  c #74D9FC",
"/  c #78DCFD",
"(  c #79DDFD",
")  c #7ADDFD",
"_  c #7BDEFE",
"`  c #7DDFFE",
"'  c #7EDFFE",
"]  c #7FE0FE",
"[  c #81E1FF",
"{  c #81E2FF",
"}  c #82E2FF",
"|  c #83E2FF",
" . c #83E3FF",
".. c #84E3FF",
"X. c None",
/* pixels */
"X.X.X.X.X.X.X.X.X.X.X.X.X.X.X.X.X.X.X.X.X.X.X.X.X.X.X.X.X.X.X.X.",
"X.X.X.X.X.X.X.X.X.X.X.X.X.X.X.X.X.X.X.X.X.X.X.X.X.X.X.X.X.X.X.X.",
"X.X.X.X.X.X.X.X.X.X.X.X.X.X.X.X.X.X.X.X.X.X.X.X.X.X.X.X.X.X.X.X.",
"X.X.X.X.X.X.X.X.X.X.X.X.X.X.X.X.X.X.X.X.X.X.X.X.X.X.X.X.X.X.X.X.",
"X.X.X.X.X.X.X.Y Y Y X.X.X.X.X.X.X.X.X.X.X.X.Y Y Y X.X.X.X.X.X.X.",
"X.X.X.X.X.X.X.R T Y Y X.X.X.X.X.X.X.X.X.X.Y Y T R X.X.X.X.X.X.X.",
"X.X.X.X.X.X.X.Z S U R Y X.X.X.X.X.X.X.X.Y R U S Z X.X.X.X.X.X.X.",
"X.X.X.Y Y Y L 0 7 x N L R X.X.X.X.X.X.R L N x 7 0 L Y Y Y X.X.X.",
"X.X.X.Y T T P 9 1 2 4 q B Y X.X.X.X.Y B w 4 2 1 9 P T T Y X.X.X.",
"X.X.X.I A C V 6 $ : > < 5 c D X.X.D c 5 < > : $ 6 V C A I X.X.X.",
"X.X./ M l k s -   o o O + % 8 X.X.8 % + O o o   - s k l M / X.X.",
"} | ) m h k d ; X o o o o o O # # O o o o o o X ; d k h m ) | } ",
"} | ) m h k d ; X o o o o o o o o o o o o o o X ; d k h m ) | } ",
"} | ) m h k d ; X o o o o o o o o o o o o o o X ; d k h m ) | } ",
"} | ) m h k d ; X o o o o o o o o o o o o o o X ; d k h m ) | } ",
"} | ) m h k d ; X o o o o o o o o o o o o o o X ; d k h m ) | } ",
"} | ) m h k d ; X o o o o o o o o o o o o o o X ; d k h m ) | } ",
"} | ) m h k d ; X o o o o o o o o o o o o o o X ; d k h m ) | } ",
"} | ) m h k d ; X o o o o o o o o o o o o o o X ; d k h m ) | } ",
"} | ) m h k d -   o o o o o o o o o o o o o o   - d k h m ) | } ",
"} | ) m h k g e & o o o o o o o o o o o o o o & e g k h m ) | } ",
"} | ) m h k k h a y * o o o o o o o o o o * y a h k k h m ) | } ",
"} | ) n f h h h k z i , o o o o o o o o , i z k h h h f n ) | } ",
"} | _ K H E J F b k j a 3 o o o o o o 3 a j k b F J E H K _ | } ",
"} } { ] [ } [ ` ^ ! G v p = o o o o = p v G ! ^ ` [ } [ ] { } } ",
"} } } } } } } |  . .' ~ F u @ o o @ u F ~ '  . .| } } } } } } } ",
"} } } } } } } } } } | ..( Q t . . t Q ( ..| } } } } } } } } } } ",
"} } X.X.X.X.X.X.X.X.X.X.X.X.W r r W X.X.X.X.X.X.X.X.X.X.X.X.} } ",
"X.X.X.X.X.X.X.X.X.X.X.X.X.X.X.X.X.X.X.X.X.X.X.X.X.X.X.X.X.X.X.X.",
"X.X.X.X.X.X.X.X.X.X.X.X.X.X.X.X.X.X.X.X.X.X.X.X.X.X.X.X.X.X.X.X.",
"X.X.X.X.X.X.X.X.X.X.X.X.X.X.X.X.X.X.X.X.X.X.X.X.X.X.X.X.X.X.X.X.",
"X.X.X.X.X.X.X.X.X.X.X.X.X.X.X.X.X.X.X.X.X.X.X.X.X.X.X.X.X.X.X.X."
};
