/* XPM */
static char *bitcoin64[] = {
/* columns rows colors chars-per-pixel */
"64 64 140 2 ",
"   c #0F83D9",
".  c #0F83DA",
"X  c #1083DA",
"o  c #1084DA",
"O  c #1185DA",
"+  c #1185DB",
"@  c #1186DA",
"#  c #1286DA",
"$  c #1387DA",
"%  c #1286DB",
"&  c #1287DC",
"*  c #1489DA",
"=  c #1589DA",
"-  c #158ADA",
";  c #168BDA",
":  c #178ADB",
">  c #1288DC",
",  c #1388DC",
"<  c #1389DC",
"1  c #1489DC",
"2  c #158BDD",
"3  c #198EDA",
"4  c #188FDF",
"5  c #1B91DA",
"6  c #1C92DA",
"7  c #1D93DA",
"8  c #1E94DA",
"9  c #1F95DA",
"0  c #2096DA",
"q  c #2196DB",
"w  c #2297DB",
"e  c #2497DD",
"r  c #2298DB",
"t  c #269ADC",
"y  c #2B9EDE",
"u  c #2DA0DE",
"i  c #2FA2DF",
"p  c #1A92E0",
"a  c #1A93E0",
"s  c #1A93E1",
"d  c #1B93E1",
"f  c #1D95E1",
"g  c #1C95E2",
"h  c #1E98E3",
"j  c #1F99E3",
"k  c #219CE5",
"l  c #229EE6",
"z  c #239FE6",
"x  c #24A0E6",
"c  c #24A1E7",
"v  c #25A1E7",
"b  c #25A2E7",
"n  c #26A3E7",
"m  c #2FA4E7",
"M  c #28A6E9",
"N  c #29A7E9",
"B  c #2BABEB",
"V  c #2CABEB",
"C  c #2CACEB",
"Z  c #2CACEC",
"A  c #2CADEC",
"S  c #2DADEC",
"D  c #2EADEC",
"F  c #2EAEEC",
"G  c #2FAEEC",
"H  c #30A3E1",
"J  c #33A5E0",
"K  c #34A6E0",
"L  c #34A6E1",
"P  c #35A6E1",
"I  c #35A7E1",
"U  c #3AAAE2",
"Y  c #3EADE4",
"T  c #33ADEC",
"R  c #31AFEC",
"E  c #31AFED",
"W  c #33B0EC",
"Q  c #36B2EC",
"!  c #36B3EE",
"~  c #37B3EE",
"^  c #3BB4EC",
"/  c #39B5EF",
"(  c #3CB6EF",
")  c #3FB8EF",
"_  c #3DB7F0",
"`  c #41B0E5",
"'  c #42B1E5",
"]  c #43B1E5",
"[  c #44B3E6",
"{  c #46B4E6",
"}  c #41B7EC",
"|  c #4BB8E8",
" . c #4CB9E8",
".. c #4DB9E8",
"X. c #4EBAE9",
"o. c #48BAEC",
"O. c #53BEEA",
"+. c #50BEEC",
"@. c #40B9F0",
"#. c #41BAF1",
"$. c #43BBF1",
"%. c #44BBF1",
"&. c #46BDF2",
"*. c #55C0EB",
"=. c #57C1EB",
"-. c #57C2EB",
";. c #53C0EC",
":. c #55C1EC",
">. c #57C2EC",
",. c #58C3EC",
"<. c #59C3EC",
"1. c #5AC3EC",
"2. c #5AC4EC",
"3. c #4FC2F4",
"4. c #4FC3F4",
"5. c #50C3F4",
"6. c #51C3F4",
"7. c #58C8F6",
"8. c #5AC9F6",
"9. c #5BCAF6",
"0. c #60CDF7",
"q. c #62CEF8",
"w. c #63CFF8",
"e. c #66D0F9",
"r. c #66D1F9",
"t. c #67D1F9",
"y. c #69D3FA",
"u. c #71D7FB",
"i. c #77DBFD",
"p. c #78DCFD",
"a. c #7ADDFD",
"s. c #7BDEFD",
"d. c #7CDEFE",
"f. c #7DDFFE",
"g. c #7FE0FE",
"h. c #80E1FF",
"j. c #82E2FF",
"k. c #83E2FF",
"l. c #83E3FF",
"z. c None",
/* pixels */
"z.z.z.z.z.z.z.z.z.z.z.z.z.z.z.z.z.z.z.z.z.z.z.z.z.z.z.z.z.z.z.z.z.z.z.z.z.z.z.z.z.z.z.z.z.z.z.z.z.z.z.z.z.z.z.z.z.z.z.z.z.z.z.z.",
"z.z.z.z.z.z.z.z.z.z.z.z.z.z.z.z.z.z.z.z.z.z.z.z.z.z.z.z.z.z.z.z.z.z.z.z.z.z.z.z.z.z.z.z.z.z.z.z.z.z.z.z.z.z.z.z.z.z.z.z.z.z.z.z.",
"z.z.z.z.z.z.z.z.z.z.z.z.z.z.z.z.z.z.z.z.z.z.z.z.z.z.z.z.z.z.z.z.z.z.z.z.z.z.z.z.z.z.z.z.z.z.z.z.z.z.z.z.z.z.z.z.z.z.z.z.z.z.z.z.",
"z.z.z.z.z.z.z.z.z.z.z.z.z.z.z.z.z.z.z.z.z.z.z.z.z.z.z.z.z.z.z.z.z.z.z.z.z.z.z.z.z.z.z.z.z.z.z.z.z.z.z.z.z.z.z.z.z.z.z.z.z.z.z.z.",
"z.z.z.z.z.z.z.z.z.z.z.z.z.z.z.z.z.z.z.z.z.z.z.z.z.z.z.z.z.z.z.z.z.z.z.z.z.z.z.z.z.z.z.z.z.z.z.z.z.z.z.z.z.z.z.z.z.z.z.z.z.z.z.z.",
"z.z.z.z.z.z.z.z.z.z.z.z.z.z.z.z.z.z.z.z.z.z.z.z.z.z.z.z.z.z.z.z.z.z.z.z.z.z.z.z.z.z.z.z.z.z.z.z.z.z.z.z.z.z.z.z.z.z.z.z.z.z.z.z.",
"z.z.z.z.z.z.z.z.z.z.z.z.z.z.z.z.z.z.z.z.z.z.z.z.z.z.z.z.z.z.z.z.z.z.z.z.z.z.z.z.z.z.z.z.z.z.z.z.z.z.z.z.z.z.z.z.z.z.z.z.z.z.z.z.",
"z.z.z.z.z.z.z.z.z.z.z.z.z.z.z.<.z.z.z.z.z.z.z.z.z.z.z.z.z.z.z.z.z.z.z.z.z.z.z.z.z.z.z.z.z.z.z.z.<.z.z.z.z.z.z.z.z.z.z.z.z.z.z.z.",
"z.z.z.z.z.z.z.z.z.z.z.z.z.z.<.<.<.<.<.z.z.z.z.z.z.z.z.z.z.z.z.z.z.z.z.z.z.z.z.z.z.z.z.z.z.<.<.<.<.<.z.z.z.z.z.z.z.z.z.z.z.z.z.z.",
"z.z.z.z.z.z.z.z.z.z.z.z.z.z.<.<.<.<.<.<.z.z.z.z.z.z.z.z.z.z.z.z.z.z.z.z.z.z.z.z.z.z.z.z.<.<.<.<.<.<.z.z.z.z.z.z.z.z.z.z.z.z.z.z.",
"z.z.z.z.z.z.z.z.z.z.z.z.z.z.<.<.<.<.<.<.<.<.z.z.z.z.z.z.z.z.z.z.z.z.z.z.z.z.z.z.z.z.<.<.<.<.<.<.<.<.z.z.z.z.z.z.z.z.z.z.z.z.z.z.",
"z.z.z.z.z.z.z.z.z.z.z.z.z.z.<.<.<.<.<.<.<.<.<.z.z.z.z.z.z.z.z.z.z.z.z.z.z.z.z.z.z.<.<.<.<.<.<.<.<.<.z.z.z.z.z.z.z.z.z.z.z.z.z.z.",
"z.z.z.z.z.z.z.z.z.z.z.z.z.z.2.2.2.<.<.<.<.<.<.<.z.z.z.z.z.z.z.z.z.z.z.z.z.z.z.z.<.<.<.<.<.<.<.2.2.2.z.z.z.z.z.z.z.z.z.z.z.z.z.z.",
"z.z.z.z.z.z.z.<.<.<.<.<.<.<.] ' ..*.1.2.<.<.<.<.<.z.z.z.z.z.z.z.z.z.z.z.z.z.z.<.<.<.<.<.2.1.*...' ] <.<.<.<.<.<.<.z.z.z.z.z.z.z.",
"z.z.z.z.z.z.<.<.<.<.<.<.<.<.K 8 r y U | =.2.<.<.<.<.z.z.z.z.z.z.z.z.z.z.z.z.<.<.<.<.2.=.| U y r 8 K <.<.<.<.<.<.<.<.z.z.z.z.z.z.",
"z.z.z.z.z.z.<.<.<.<.<.<.<.<.L 8 9 8 8 w i [ *.2.<.<.<.z.z.z.z.z.z.z.z.z.z.<.<.<.2.*.[ i w 8 8 9 8 L <.<.<.<.<.<.<.<.z.z.z.z.z.z.",
"z.z.z.z.z.z.<.<.<.<.<.<.<.<.L 8 9 9 9 9 8 0 u { -.2.<.z.z.z.z.z.z.z.z.z.z.<.2.-.{ u 0 8 9 9 9 9 8 L <.<.<.<.<.<.<.<.z.z.z.z.z.z.",
"z.z.z.z.z.z.<.<.<.<.<.<.<.<.P 8 9 9 9 9 9 9 8 q J X.1.<.z.z.z.z.z.z.z.z.<.1.X.J q 8 9 9 9 9 9 9 8 P <.<.<.<.<.<.<.<.z.z.z.z.z.z.",
"z.z.z.z.z.z.<.1.1.1.,.>.:.;.H 5 6 7 7 8 9 9 9 9 8 t ` -.2.z.z.z.z.z.z.2.-.` t 8 9 9 9 9 8 7 7 6 5 H ;.:.>.,.1.1.1.<.z.z.z.z.z.z.",
"z.z.z.z.z.z.:.+.o.} ^ Q W R f O @ @ # $ * ; 3 5 7 8 0 I O.z.z.z.z.z.z.O.I 0 8 7 5 3 ; * $ # @ @ O f R W Q ^ } o.+.:.z.z.z.z.z.z.",
"z.z.z.z.z.a.) G S A A A A A d . o o o o o o o O # - 3 6 u  .z.z.z.z. .u 6 3 - # O o o o o o o o . d S A A A A S G ) a.z.z.z.z.z.",
"z.z.j.j.k.d._ Z S S S S S S d . o o o o o o o o o o o @ = e Y z.z.Y e = @ o o o o o o o o o o o . d S S S S S S Z _ d.k.j.j.z.z.",
"j.j.j.j.k.d._ Z S S S S S S d . o o o o o o o o o o o o o o : z.z.: o o o o o o o o o o o o o o . d S S S S S S Z _ d.k.j.j.j.j.",
"j.j.j.j.k.d._ Z S S S S S S d . o o o o o o o o o o o o o o o z.z.o o o o o o o o o o o o o o o . d S S S S S S Z _ d.k.j.j.j.j.",
"j.j.j.j.k.d._ Z S S S S S S d . o o o o o o o o o o o o o o o z.z.o o o o o o o o o o o o o o o . d S S S S S S Z _ d.k.j.j.j.j.",
"j.j.j.j.k.d._ Z S S S S S S d . o o o o o o o o o o o o o o o z.z.o o o o o o o o o o o o o o o . d S S S S S S Z _ d.k.j.j.j.j.",
"j.j.j.j.k.d._ Z S S S S S S d . o o o o o o o o o o o o o o o z.z.o o o o o o o o o o o o o o o . d S S S S S S Z _ d.k.j.j.j.j.",
"j.j.j.j.k.d._ Z S S S S S S d . o o o o o o o o o o o o o o o z.z.o o o o o o o o o o o o o o o . d S S S S S S Z _ d.k.j.j.j.j.",
"j.j.j.j.k.d._ Z S S S S S S d . o o o o o o o o o o o o o o o z.z.o o o o o o o o o o o o o o o . d S S S S S S Z _ d.k.j.j.j.j.",
"j.j.j.j.k.d._ Z S S S S S S d . o o o o o o o o o o o o o o o z.z.o o o o o o o o o o o o o o o . d S S S S S S Z _ d.k.j.j.j.j.",
"j.j.j.j.k.d._ Z S S S S S S d . o o o o o o o o o o o o o o o z.z.o o o o o o o o o o o o o o o . d S S S S S S Z _ d.k.j.j.j.j.",
"j.j.j.j.k.d._ Z S S S S S S d . o o o o o o o o o o o o o o o z.z.o o o o o o o o o o o o o o o . d S S S S S S Z _ d.k.j.j.j.j.",
"j.j.j.j.k.d._ Z S S S S S S d . o o o o o o o o o o o o o o o z.z.o o o o o o o o o o o o o o o . d S S S S S S Z _ d.k.j.j.j.j.",
"j.j.j.j.k.d._ Z S S S S S S d . o o o o o o o o o o o o o o o z.z.o o o o o o o o o o o o o o o . d S S S S S S Z _ d.k.j.j.j.j.",
"j.j.j.j.k.d._ Z S S S S S S d . o o o o o o o o o o o o o o o z.z.o o o o o o o o o o o o o o o . d S S S S S S Z _ d.k.j.j.j.j.",
"j.j.j.j.k.d._ Z S S S S S S d . o o o o o o o o o o o o o o o z.z.o o o o o o o o o o o o o o o . d S S S S S S Z _ d.k.j.j.j.j.",
"j.j.j.j.k.d._ Z S S S S S S d . o o o o o o o o o o o o o o o z.z.o o o o o o o o o o o o o o o . d S S S S S S Z _ d.k.j.j.j.j.",
"j.j.j.j.k.d._ Z S S S S S S d . o o o o o o o o o o o o o o o z.z.o o o o o o o o o o o o o o o . d S S S S S S Z _ d.k.j.j.j.j.",
"j.j.j.j.k.d._ Z S S S S S S d . o o o o o o o o o o o o o o o z.z.o o o o o o o o o o o o o o o . d S S S S S S Z _ d.k.j.j.j.j.",
"j.j.j.j.k.d._ Z S S S S S S d . o o o o o o o o o o o o o o o z.z.o o o o o o o o o o o o o o o . d S S S S S S Z _ d.k.j.j.j.j.",
"j.j.j.j.k.d._ Z S S S S S S a   X o o o o o o o o o o o o o o z.z.o o o o o o o o o o o o o o X   a S S S S S S Z _ d.k.j.j.j.j.",
"j.j.j.j.k.d._ Z S S S S S S x g 4 > o o o o o o o o o o o o o z.z.o o o o o o o o o o o o o > 4 g x S S S S S S Z _ d.k.j.j.j.j.",
"j.j.j.j.k.d._ Z S S S S S S S S C M h 1 o o o o o o o o o o o z.z.o o o o o o o o o o o 1 h M C S S S S S S S S Z _ d.k.j.j.j.j.",
"j.j.j.j.k.d._ Z S S S S S S S S S D S N d O o o o o o o o o o z.z.o o o o o o o o o O d N S D S S S S S S S S S Z _ d.k.j.j.j.j.",
"j.j.j.j.k.d._ Z S S S S S S S S S S S D Z k & o o o o o o o o z.z.o o o o o o o o & k Z D S S S S S S S S S S S Z _ d.k.j.j.j.j.",
"j.j.j.j.k.d._ Z S S S S S S S S S S S S S S v 1 o o o o o o o z.z.o o o o o o o 1 c S S S S S S S S S S S S S S Z _ d.k.j.j.j.j.",
"j.j.j.j.k.d.( B Z S D D S Z Z Z A S S S S S D n 1 o o o o o o z.z.o o o o o o 1 n D S S S S S A Z Z Z S D D S Z B ( d.k.j.j.j.j.",
"j.j.j.j.j.f.4.3.9.q.e.e.q.9.6.%.~ G Z A S S S D b , o o o o o z.z.o o o o o , b D S S S A Z G ~ $.6.9.q.e.e.q.9.3.4.f.j.j.j.j.j.",
"j.j.j.j.j.j.h.j.l.l.l.l.l.l.k.g.i.t.5./ D Z S S S z % o o o o z.z.o o o o % z S S S Z D / 5.t.i.g.k.l.l.l.l.l.l.j.h.j.j.j.j.j.j.",
"j.j.j.j.j.j.j.j.j.j.j.j.j.j.j.j.k.l.j.p.0.#.G Z S S j o o o o z.z.o o o o j S S Z G #.0.p.j.l.k.j.j.j.j.j.j.j.j.j.j.j.j.j.j.j.j.",
"j.j.j.j.j.j.j.j.j.j.j.j.j.j.j.j.j.j.j.k.l.f.w.@.S A V p o o o z.z.o o o p V A S @.w.f.l.k.j.j.j.j.j.j.j.j.j.j.j.j.j.j.j.j.j.j.j.",
"j.j.j.j.j.j.j.j.j.j.j.j.j.j.j.j.j.j.j.j.j.k.l.s.8.! A N 2 o o z.z.o o 2 N A ! 8.s.l.k.j.j.j.j.j.j.j.j.j.j.j.j.j.j.j.j.j.j.j.j.j.",
"j.j.j.j.j.j.j.j.j.j.j.j.j.j.j.j.j.j.j.j.j.j.j.k.k.u.&.F l + o z.z.o + l F &.u.k.k.j.j.j.j.j.j.j.j.j.j.j.j.j.j.j.j.j.j.j.j.j.j.j.",
"j.j.j.j.j.j.j.j.j.j.z.z.z.z.z.z.z.z.z.z.z.j.j.j.j.l.f.7.E s o z.z.o s E 7.f.l.j.j.j.j.z.z.z.z.z.z.z.z.z.z.z.j.j.j.j.j.j.j.j.j.j.",
"j.j.j.j.j.j.z.z.z.z.z.z.z.z.z.z.z.z.z.z.z.z.z.z.z.z.k.j.r.T < z.z.< T r.j.k.z.z.z.z.z.z.z.z.z.z.z.z.z.z.z.z.z.z.z.z.j.j.j.j.j.j.",
"j.j.j.z.z.z.z.z.z.z.z.z.z.z.z.z.z.z.z.z.z.z.z.z.z.z.z.z.z.y.m z.z.m y.z.z.z.z.z.z.z.z.z.z.z.z.z.z.z.z.z.z.z.z.z.z.z.z.z.z.j.j.j.",
"z.z.z.z.z.z.z.z.z.z.z.z.z.z.z.z.z.z.z.z.z.z.z.z.z.z.z.z.z.z.z.z.z.z.z.z.z.z.z.z.z.z.z.z.z.z.z.z.z.z.z.z.z.z.z.z.z.z.z.z.z.z.z.z.",
"z.z.z.z.z.z.z.z.z.z.z.z.z.z.z.z.z.z.z.z.z.z.z.z.z.z.z.z.z.z.z.z.z.z.z.z.z.z.z.z.z.z.z.z.z.z.z.z.z.z.z.z.z.z.z.z.z.z.z.z.z.z.z.z.",
"z.z.z.z.z.z.z.z.z.z.z.z.z.z.z.z.z.z.z.z.z.z.z.z.z.z.z.z.z.z.z.z.z.z.z.z.z.z.z.z.z.z.z.z.z.z.z.z.z.z.z.z.z.z.z.z.z.z.z.z.z.z.z.z.",
"z.z.z.z.z.z.z.z.z.z.z.z.z.z.z.z.z.z.z.z.z.z.z.z.z.z.z.z.z.z.z.z.z.z.z.z.z.z.z.z.z.z.z.z.z.z.z.z.z.z.z.z.z.z.z.z.z.z.z.z.z.z.z.z.",
"z.z.z.z.z.z.z.z.z.z.z.z.z.z.z.z.z.z.z.z.z.z.z.z.z.z.z.z.z.z.z.z.z.z.z.z.z.z.z.z.z.z.z.z.z.z.z.z.z.z.z.z.z.z.z.z.z.z.z.z.z.z.z.z.",
"z.z.z.z.z.z.z.z.z.z.z.z.z.z.z.z.z.z.z.z.z.z.z.z.z.z.z.z.z.z.z.z.z.z.z.z.z.z.z.z.z.z.z.z.z.z.z.z.z.z.z.z.z.z.z.z.z.z.z.z.z.z.z.z.",
"z.z.z.z.z.z.z.z.z.z.z.z.z.z.z.z.z.z.z.z.z.z.z.z.z.z.z.z.z.z.z.z.z.z.z.z.z.z.z.z.z.z.z.z.z.z.z.z.z.z.z.z.z.z.z.z.z.z.z.z.z.z.z.z.",
"z.z.z.z.z.z.z.z.z.z.z.z.z.z.z.z.z.z.z.z.z.z.z.z.z.z.z.z.z.z.z.z.z.z.z.z.z.z.z.z.z.z.z.z.z.z.z.z.z.z.z.z.z.z.z.z.z.z.z.z.z.z.z.z."
};
