/* XPM */
static char *bitcoin16[] = {
/* columns rows colors chars-per-pixel */
"16 16 44 1 ",
"  c #0F83DA",
". c #1084DA",
"X c #1085DA",
"o c #1186DB",
"O c #1287DB",
"+ c #1589DA",
"@ c #1388DC",
"# c #1A90DA",
"$ c #1E91DD",
"% c #2498DD",
"& c #1C95E1",
"* c #219CE4",
"= c #2B9FE5",
"- c #24A0E6",
"; c #27A5E9",
": c #2CA5E8",
"> c #2BACEC",
", c #2CADEC",
"< c #2FAEEC",
"1 c #37A9E4",
"2 c #3CABE3",
"3 c #33B1ED",
"4 c #3DB7F0",
"5 c #3FB8F0",
"6 c #40B0E4",
"7 c #48B5E6",
"8 c #51BCE9",
"9 c #51BFEC",
"0 c #5AC4EC",
"q c #5BC4EC",
"w c #56C7F5",
"e c #57C7F5",
"r c #59C9F6",
"t c #5AC9F6",
"y c #61CDF8",
"u c #62CDF8",
"i c #71D7FB",
"p c #7CDEFE",
"a c #7EDFFE",
"s c #7FE0FE",
"d c #82E2FF",
"f c #83E3FF",
"g c #84E3FF",
"h c None",
/* pixels */
"hhhhhhhhhhhhhhhh",
"hhhhhhhhhhhhhhhh",
"hhhh0hhhhhh0hhhh",
"hhq768hhhh867qhh",
"hh91#%2hh2%#19hh",
"ge<*.X+$$+X.*<eg",
"ft,*........*,tf",
"ft,*........*,tf",
"ft,*........*,tf",
"ft,* ...... *,tf",
"fr>;&O....O&;>rf",
"fy543-@..@-345yf",
"dsapiw:oo:wipasd",
"ddhhhhu==uhhhhdd",
"hhhhhhhhhhhhhhhh",
"hhhhhhhhhhhhhhhh"
};
